<svg id="visual" viewBox="0 0 1400 600" width="1400" height="600" xmlns="http://www.w3.org/2000/svg" xmlns:xlink="http://www.w3.org/1999/xlink" version="1.1"><rect x="0" y="0" width="1400" height="600" fill="#d0d7dd"></rect><defs><linearGradient id="grad1_0" x1="57.1%" y1="0%" x2="100%" y2="100%"><stop offset="3.333333333333332%" stop-color="#d0d7dd" stop-opacity="1"></stop><stop offset="96.66666666666667%" stop-color="#d0d7dd" stop-opacity="1"></stop></linearGradient></defs><defs><linearGradient id="grad2_0" x1="0%" y1="0%" x2="42.9%" y2="100%"><stop offset="3.333333333333332%" stop-color="#d0d7dd" stop-opacity="1"></stop><stop offset="96.66666666666667%" stop-color="#d0d7dd" stop-opacity="1"></stop></linearGradient></defs><g transform="translate(1400, 0)"><path d="M0 600C-53.3 598.6 -106.6 597.2 -155.3 579.6C-204 562 -248.1 528.2 -279.5 484.1C-310.9 440 -329.7 385.6 -338 338C-346.3 290.4 -344.2 249.6 -386.2 223C-428.3 196.4 -514.4 184.1 -557.3 149.3C-600.3 114.5 -600.2 57.3 -600 0L0 0Z" fill="#FF6F61"></path></g><g transform="translate(0, 600)"><path d="M0 -600C57.9 -608 115.8 -616.1 155.3 -579.6C194.8 -543 215.8 -461.9 238.5 -413.1C261.2 -364.3 285.4 -347.8 332.3 -332.3C379.2 -316.9 448.7 -302.6 457.3 -264C465.8 -225.4 413.3 -162.5 426.9 -114.4C440.6 -66.3 520.3 -33.2 600 0L0 0Z" fill="#FF6F61"></path></g></svg>