<svg id="visual" viewBox="0 0 900 600" width="900" height="600" xmlns="http://www.w3.org/2000/svg" xmlns:xlink="http://www.w3.org/1999/xlink" version="1.1"><path d="M0 410L15 429.5C30 449 60 488 90 514.3C120 540.7 150 554.3 180 556.2C210 558 240 548 270 532.2C300 516.3 330 494.7 360 487.3C390 480 420 487 450 483.5C480 480 510 466 540 442.8C570 419.7 600 387.3 630 393.3C660 399.3 690 443.7 720 461.8C750 480 780 472 810 482.8C840 493.7 870 523.3 885 538.2L900 553L900 0L885 0C870 0 840 0 810 0C780 0 750 0 720 0C690 0 660 0 630 0C600 0 570 0 540 0C510 0 480 0 450 0C420 0 390 0 360 0C330 0 300 0 270 0C240 0 210 0 180 0C150 0 120 0 90 0C60 0 30 0 15 0L0 0Z" fill="#fa7268"></path><path d="M0 364L15 358.5C30 353 60 342 90 334.7C120 327.3 150 323.7 180 340C210 356.3 240 392.7 270 424.8C300 457 330 485 360 486.7C390 488.3 420 463.7 450 429C480 394.3 510 349.7 540 347.2C570 344.7 600 384.3 630 403.5C660 422.7 690 421.3 720 421.2C750 421 780 422 810 407C840 392 870 361 885 345.5L900 330L900 0L885 0C870 0 840 0 810 0C780 0 750 0 720 0C690 0 660 0 630 0C600 0 570 0 540 0C510 0 480 0 450 0C420 0 390 0 360 0C330 0 300 0 270 0C240 0 210 0 180 0C150 0 120 0 90 0C60 0 30 0 15 0L0 0Z" fill="#f56a67"></path><path d="M0 434L15 425.5C30 417 60 400 90 393.8C120 387.7 150 392.3 180 403.5C210 414.7 240 432.3 270 436.8C300 441.3 330 432.7 360 417.3C390 402 420 380 450 364.8C480 349.7 510 341.3 540 334.7C570 328 600 323 630 329.7C660 336.3 690 354.7 720 362.3C750 370 780 367 810 377.8C840 388.7 870 413.3 885 425.7L900 438L900 0L885 0C870 0 840 0 810 0C780 0 750 0 720 0C690 0 660 0 630 0C600 0 570 0 540 0C510 0 480 0 450 0C420 0 390 0 360 0C330 0 300 0 270 0C240 0 210 0 180 0C150 0 120 0 90 0C60 0 30 0 15 0L0 0Z" fill="#f06167"></path><path d="M0 392L15 380C30 368 60 344 90 325C120 306 150 292 180 282.2C210 272.3 240 266.7 270 275.3C300 284 330 307 360 304.3C390 301.7 420 273.3 450 274.7C480 276 510 307 540 304C570 301 600 264 630 256.3C660 248.7 690 270.3 720 276.8C750 283.3 780 274.7 810 284.2C840 293.7 870 321.3 885 335.2L900 349L900 0L885 0C870 0 840 0 810 0C780 0 750 0 720 0C690 0 660 0 630 0C600 0 570 0 540 0C510 0 480 0 450 0C420 0 390 0 360 0C330 0 300 0 270 0C240 0 210 0 180 0C150 0 120 0 90 0C60 0 30 0 15 0L0 0Z" fill="#eb5967"></path><path d="M0 240L15 233.8C30 227.7 60 215.3 90 229.5C120 243.7 150 284.3 180 288.3C210 292.3 240 259.7 270 255.3C300 251 330 275 360 277C390 279 420 259 450 258.2C480 257.3 510 275.7 540 268C570 260.3 600 226.7 630 222.2C660 217.7 690 242.3 720 257C750 271.7 780 276.3 810 273.8C840 271.3 870 261.7 885 256.8L900 252L900 0L885 0C870 0 840 0 810 0C780 0 750 0 720 0C690 0 660 0 630 0C600 0 570 0 540 0C510 0 480 0 450 0C420 0 390 0 360 0C330 0 300 0 270 0C240 0 210 0 180 0C150 0 120 0 90 0C60 0 30 0 15 0L0 0Z" fill="#e65067"></path><path d="M0 161L15 184.3C30 207.7 60 254.3 90 258.2C120 262 150 223 180 212.5C210 202 240 220 270 220.7C300 221.3 330 204.7 360 200.5C390 196.3 420 204.7 450 209C480 213.3 510 213.7 540 211.3C570 209 600 204 630 201.2C660 198.3 690 197.7 720 209.7C750 221.7 780 246.3 810 256.5C840 266.7 870 262.3 885 260.2L900 258L900 0L885 0C870 0 840 0 810 0C780 0 750 0 720 0C690 0 660 0 630 0C600 0 570 0 540 0C510 0 480 0 450 0C420 0 390 0 360 0C330 0 300 0 270 0C240 0 210 0 180 0C150 0 120 0 90 0C60 0 30 0 15 0L0 0Z" fill="#e04867"></path><path d="M0 232L15 231.8C30 231.7 60 231.3 90 217C120 202.7 150 174.3 180 166.3C210 158.3 240 170.7 270 174.3C300 178 330 173 360 178.2C390 183.3 420 198.7 450 191.7C480 184.7 510 155.3 540 152C570 148.7 600 171.3 630 178.8C660 186.3 690 178.7 720 175.8C750 173 780 175 810 178.3C840 181.7 870 186.3 885 188.7L900 191L900 0L885 0C870 0 840 0 810 0C780 0 750 0 720 0C690 0 660 0 630 0C600 0 570 0 540 0C510 0 480 0 450 0C420 0 390 0 360 0C330 0 300 0 270 0C240 0 210 0 180 0C150 0 120 0 90 0C60 0 30 0 15 0L0 0Z" fill="#da3f67"></path><path d="M0 181L15 173.7C30 166.3 60 151.7 90 149.5C120 147.3 150 157.7 180 164.3C210 171 240 174 270 171.3C300 168.7 330 160.3 360 144.5C390 128.7 420 105.3 450 113.5C480 121.7 510 161.3 540 163.2C570 165 600 129 630 121.5C660 114 690 135 720 135.5C750 136 780 116 810 114.8C840 113.7 870 131.3 885 140.2L900 149L900 0L885 0C870 0 840 0 810 0C780 0 750 0 720 0C690 0 660 0 630 0C600 0 570 0 540 0C510 0 480 0 450 0C420 0 390 0 360 0C330 0 300 0 270 0C240 0 210 0 180 0C150 0 120 0 90 0C60 0 30 0 15 0L0 0Z" fill="#d43667"></path><path d="M0 49L15 60.3C30 71.7 60 94.3 90 103C120 111.7 150 106.3 180 105.5C210 104.7 240 108.3 270 108.5C300 108.7 330 105.3 360 104.3C390 103.3 420 104.7 450 97.5C480 90.3 510 74.7 540 71.2C570 67.7 600 76.3 630 82.5C660 88.7 690 92.3 720 90.8C750 89.3 780 82.7 810 82.3C840 82 870 88 885 91L900 94L900 0L885 0C870 0 840 0 810 0C780 0 750 0 720 0C690 0 660 0 630 0C600 0 570 0 540 0C510 0 480 0 450 0C420 0 390 0 360 0C330 0 300 0 270 0C240 0 210 0 180 0C150 0 120 0 90 0C60 0 30 0 15 0L0 0Z" fill="#cd2d68"></path><path d="M0 23L15 29.2C30 35.3 60 47.7 90 48.2C120 48.7 150 37.3 180 33.8C210 30.3 240 34.7 270 38.7C300 42.7 330 46.3 360 49.5C390 52.7 420 55.3 450 49.2C480 43 510 28 540 23.2C570 18.3 600 23.7 630 37.2C660 50.7 690 72.3 720 74.2C750 76 780 58 810 49.7C840 41.3 870 42.7 885 43.3L900 44L900 0L885 0C870 0 840 0 810 0C780 0 750 0 720 0C690 0 660 0 630 0C600 0 570 0 540 0C510 0 480 0 450 0C420 0 390 0 360 0C330 0 300 0 270 0C240 0 210 0 180 0C150 0 120 0 90 0C60 0 30 0 15 0L0 0Z" fill="#c62368"></path></svg>